<?xml version="1.0" encoding="utf-8"?>
<!-- Generator: Adobe Illustrator 21.0.2, SVG Export Plug-In . SVG Version: 6.00 Build 0)  -->
<svg version="1.1" xmlns="http://www.w3.org/2000/svg" xmlns:xlink="http://www.w3.org/1999/xlink" x="0px" y="0px"
	 viewBox="0 0 24 24" style="enable-background:new 0 0 24 24;" xml:space="preserve">
<style type="text/css">
	.st0{fill:#FFFFFF;}
	.st1{fill:#CCE7FF;}
	.st2{fill:#CCE7FF;stroke:#1078FF;stroke-linejoin:round;stroke-miterlimit:10;}
	.st3{fill:none;stroke:#1078FF;stroke-linecap:round;stroke-linejoin:round;stroke-miterlimit:10;}
	.st4{fill:none;stroke:#1078FF;stroke-linejoin:round;stroke-miterlimit:10;}
	.st5{fill:none;stroke:#1078FF;stroke-width:0.9847;stroke-linecap:round;stroke-linejoin:round;stroke-miterlimit:10;}
	.st6{fill:none;stroke:#1078FF;stroke-linecap:round;stroke-miterlimit:10;}
	.st7{fill:none;stroke:#1078FF;stroke-miterlimit:10;}
	.st8{fill:none;}
</style>
<g id="Duotone">
	<polygon class="st0" points="9.5,17.5 6.5,19 3.5,17.5 3.5,13.5 6.5,12 9.5,13.5 	"/>
	<polygon class="st0" points="16.5,4.5 12.5,6.8 12.5,11.3 14,12.5 14.5,12.5 14.5,14.5 18.5,14.5 18.5,12.5 19,12.5 20.5,11.3 
		20.5,6.8 	"/>
	<polygon class="st0" points="11.5,23.5 11.5,21.5 6.5,20 1.5,21.5 1.5,23.5 	"/>
	<polygon class="st1" points="16.5,14.5 18.5,14.5 18.5,12.5 19,12.5 20.5,11.2 20.5,6.7 16.5,4.5 	"/>
	<polygon class="st2" points="9.5,14.5 5.5,14.5 3.5,13.5 6.5,12 9.5,13.5 	"/>
	<g>
		<polyline class="st3" points="16.5,12.5 16.5,10 18,8.5 		"/>
		<line class="st3" x1="16.5" y1="10" x2="15" y2="8.5"/>
		<line class="st3" x1="16.5" y1="2.5" x2="16.5" y2="0.5"/>
		<line class="st3" x1="13.5" y1="3" x2="12.5" y2="1.5"/>
		<line class="st3" x1="11.5" y1="4.5" x2="10" y2="3.5"/>
		<line class="st3" x1="19.5" y1="3" x2="20.5" y2="1.5"/>
		<line class="st3" x1="21.5" y1="4.5" x2="23" y2="3.5"/>
		<line class="st3" x1="16.5" y1="14.5" x2="16.5" y2="15.5"/>
		<line class="st3" x1="6.5" y1="22" x2="6.5" y2="23.5"/>
		<polyline class="st3" points="11.5,23.5 11.5,21.5 6.5,20 1.5,21.5 1.5,23.5 		"/>
		<polygon class="st4" points="9.5,17.5 6.5,19 3.5,17.5 3.5,13.5 6.5,12 9.5,13.5 		"/>
		<polygon class="st4" points="16.5,4.5 12.5,6.8 12.5,11.3 14,12.5 19,12.5 20.5,11.3 20.5,6.8 		"/>
		<polyline class="st3" points="14.5,12.5 14.5,14.5 18.5,14.5 18.5,12.5 		"/>
	</g>
</g>
<g id="Frames-24px">
	<rect class="st8" width="24" height="24"/>
</g>
</svg>
