<svg xmlns="http://www.w3.org/2000/svg" width="24" height="24" viewBox="0 0 24 24">
  <title>business-handshake-deal</title>
  <g id="Duotone">
    <polygon points="13.874 16.5 13.761 17.153 12.052 17.448 11.758 19.157 10.049 19.451 6.097 15.5 3.5 15 3.5 16.5 0.5 16.5 0.5 7.5 3.5 7.5 3.5 9 6 8.5 9.618 7 11.514 8.896 13.132 7.5 15 7.5 18 9 20.5 9.5 20.5 8.5 23.5 8.5 23.5 17.5 20.5 17.5 20.5 16 18.5 16.5 13.874 16.5" fill="#fff"/>
    <rect x="20.5" y="10" width="3" height="7.5" fill="#cce7ff"/>
    <rect x="0.5" y="9" width="3" height="7.5" fill="#cce7ff"/>
    <g>
      <polyline points="14.5 10.5 9.934 12 9 11.066 13.132 7.5 15 7.5 18 9 20.5 9.5 20.5 16 18.5 16.5 13.874 16.5" fill="none" stroke="#1078ff" stroke-linecap="round" stroke-linejoin="round"/>
      <polyline points="3.5 15 6.097 15.5 10.049 19.451 11.758 19.157 12.052 17.448 13.761 17.153 14.056 15.444 15.764 15.15 16.059 13.441 13.46 10.842" fill="none" stroke="#1078ff" stroke-linejoin="round"/>
      <polyline points="11.514 8.896 9.618 7 6 8.5 3.5 9" fill="none" stroke="#1078ff" stroke-linejoin="round"/>
      <rect x="0.5" y="7.5" width="3" height="9" fill="none" stroke="#1078ff" stroke-linejoin="round"/>
      <rect x="20.5" y="8.5" width="3" height="9" fill="none" stroke="#1078ff" stroke-linejoin="round"/>
    </g>
  </g>
  <g id="Frames-24px">
    <rect width="24" height="24" fill="none"/>
  </g>
</svg>
