<svg xmlns="http://www.w3.org/2000/svg" width="24" height="24" viewBox="0 0 24 24">
  <title>clipboard-edit</title>
  <g id="Duotone">
    <polygon points="22.5 15.622 20.5 13.621 20.5 3.5 15.255 3.5 15 2.5 12.5 2.5 12.5 0.5 8.5 0.5 8.5 2.5 6 2.5 5.745 3.5 0.5 3.5 0.5 23.5 20.5 23.5 20.5 17.621 22.5 15.622" fill="#fff"/>
    <polygon points="5 6.5 16 6.5 15 2.5 12.5 2.5 5 6.5" fill="#cce7ff"/>
    <polygon points="21.449 14.571 12.526 23.494 15.232 22.889 22.5 15.622 21.449 14.571" fill="#cce7ff"/>
    <g>
      <line x1="5.5" y1="10.5" x2="15.5" y2="10.5" fill="none" stroke="#1078ff" stroke-linecap="round" stroke-linejoin="round"/>
      <line x1="5.5" y1="13.5" x2="15.5" y2="13.5" fill="none" stroke="#1078ff" stroke-linecap="round" stroke-linejoin="round"/>
      <line x1="5.5" y1="16.5" x2="10.5" y2="16.5" fill="none" stroke="#1078ff" stroke-linecap="round" stroke-linejoin="round"/>
      <g>
        <polyline points="10.5 23.5 0.5 23.5 0.5 3.5 5.75 3.5" fill="none" stroke="#1078ff" stroke-linecap="round" stroke-linejoin="round"/>
        <polyline points="15.25 3.5 20.5 3.5 20.5 11.5" fill="none" stroke="#1078ff" stroke-linecap="round" stroke-linejoin="round"/>
        <polyline points="10.5 21.5 2.5 21.5 2.5 6.5" fill="none" stroke="#1078ff" stroke-linecap="round" stroke-linejoin="round"/>
        <line x1="18.5" y1="6.5" x2="18.5" y2="12.5" fill="none" stroke="#1078ff" stroke-linecap="round" stroke-linejoin="round"/>
      </g>
    </g>
    <polygon points="12.5 2.5 12.5 0.5 8.5 0.5 8.5 2.5 6 2.5 5 6.5 16 6.5 15 2.5 12.5 2.5" fill="none" stroke="#1078ff" stroke-linecap="round" stroke-linejoin="round"/>
    <polygon points="13.111 20.768 20.379 13.5 22.5 15.622 15.232 22.889 12.5 23.5 13.111 20.768" fill="none" stroke="#1078ff" stroke-linecap="round" stroke-linejoin="round"/>
  </g>
  <g id="Frames-24px">
    <rect width="24" height="24" fill="none"/>
  </g>
</svg>
