<svg xmlns="http://www.w3.org/2000/svg" width="24" height="24" viewBox="0 0 24 24">
  <title>mountains</title>
  <g id="Duotone">
    <polygon points="18.941 12.558 17.5 13.999 16 12.499 14.5 13.999 13.059 12.558 16 5.499 18.941 12.558" fill="#fff"/>
    <polygon points="10.5 18.699 12.5 23.499 23.5 23.499 18.941 12.558 17.5 13.999 16 12.499 14.5 13.999 13.059 12.558 10.5 18.699" fill="#cce7ff"/>
    <polygon points="7.5 11.499 12.5 23.499 2.5 23.499 7.5 11.499" fill="#cce7ff"/>
    <polygon points="7.5 11.499 12.5 23.499 2.5 23.499 7.5 11.499" fill="none" stroke="#1078ff" stroke-linecap="round" stroke-linejoin="round"/>
    <polygon points="10.5 18.699 16 5.499 23.5 23.499 12.5 23.499 10.5 18.699" fill="none" stroke="#1078ff" stroke-linecap="round" stroke-linejoin="round"/>
    <polyline points="0.5 3.499 2.5 1.499 4.5 3.499 6.5 1.499 8.5 3.499 10.5 1.499 12.5 3.499" fill="none" stroke="#1078ff" stroke-linecap="round" stroke-linejoin="round"/>
    <polyline points="0.5 7.499 2.5 5.499 4.5 7.499 6.5 5.499 8.5 7.499" fill="none" stroke="#1078ff" stroke-linecap="round" stroke-linejoin="round"/>
    <polygon points="18.941 12.558 17.5 13.999 16 12.499 14.5 13.999 13.059 12.558 16 5.499 18.941 12.558" fill="none" stroke="#1078ff" stroke-linecap="round" stroke-linejoin="round"/>
  </g>
  <g id="Frames-24px">
    <rect width="24" height="24" fill="none"/>
  </g>
</svg>
