<svg xmlns="http://www.w3.org/2000/svg" width="24" height="24" viewBox="0 0 24 24">
  <title>package-trolley-4</title>
  <g id="Duotone">
    <polygon points="14.5 13.5 8.5 11 2.5 13.5 2.5 20.5 8.5 23 14.5 20.5 14.5 13.5" fill="#fff"/>
    <polygon points="20.5 22.25 18.5 23.5 16.5 22.25 16.5 20.25 18.5 19 20.5 20.25 20.5 22.25" fill="#fff"/>
    <polygon points="11.518 12.257 5.5 14.75 8.5 16 8.5 23 14.5 20.5 14.5 13.5 11.518 12.257" fill="#cce7ff"/>
    <polygon points="20.5 20.25 20.5 22.25 18.5 23.5 16.5 22.25 20.5 20.25" fill="#cce7ff"/>
    <g>
      <polyline points="2.5 13.5 2.5 20.5 8.5 23 14.5 20.5 14.5 13.5" fill="none" stroke="#1078ff" stroke-linecap="round" stroke-linejoin="round"/>
      <polyline points="2.5 13.5 8.5 16 14.5 13.5" fill="none" stroke="#1078ff" stroke-linecap="round" stroke-linejoin="round"/>
      <polyline points="11.518 12.257 5.5 14.75 5.5 16.456" fill="none" stroke="#1078ff" stroke-linecap="round" stroke-linejoin="round"/>
      <polyline points="2.5 13.5 8.5 11 14.5 13.5" fill="none" stroke="#1078ff" stroke-linecap="round" stroke-linejoin="round"/>
      <line x1="8.5" y1="16" x2="8.5" y2="23" fill="none" stroke="#1078ff" stroke-linecap="round" stroke-linejoin="round"/>
      <line x1="12.5" y1="2.5" x2="12.5" y2="10.5" fill="none" stroke="#1078ff" stroke-linecap="round" stroke-linejoin="round"/>
      <polyline points="12.5 2.5 18.5 5 20.5 3" fill="none" stroke="#1078ff" stroke-linecap="round" stroke-linejoin="round"/>
      <line x1="12.5" y1="6" x2="18.5" y2="8.5" fill="none" stroke="#1078ff" stroke-linecap="round" stroke-linejoin="round"/>
      <line x1="12.5" y1="8.5" x2="18.5" y2="11" fill="none" stroke="#1078ff" stroke-linecap="round" stroke-linejoin="round"/>
      <line x1="12.5" y1="2.5" x2="14.5" y2="0.5" fill="none" stroke="#1078ff" stroke-linecap="round" stroke-linejoin="round"/>
      <line x1="18.5" y1="5" x2="18.5" y2="19" fill="none" stroke="#1078ff" stroke-linecap="round" stroke-linejoin="round"/>
      <line x1="13.5" y1="23.5" x2="16.505" y2="22.263" fill="none" stroke="#1078ff" stroke-linecap="round" stroke-linejoin="round"/>
      <polygon points="20.5 22.25 18.5 23.5 16.5 22.25 16.5 20.25 18.5 19 20.5 20.25 20.5 22.25" fill="none" stroke="#1078ff" stroke-linecap="round" stroke-linejoin="round"/>
    </g>
  </g>
  <g id="Frames-24px">
    <rect width="24" height="24" fill="none"/>
  </g>
</svg>
