<?xml version="1.0" encoding="utf-8"?>
<!-- Generator: Adobe Illustrator 21.0.2, SVG Export Plug-In . SVG Version: 6.00 Build 0)  -->
<svg version="1.1" xmlns="http://www.w3.org/2000/svg" xmlns:xlink="http://www.w3.org/1999/xlink" x="0px" y="0px"
	 viewBox="0 0 24 24" style="enable-background:new 0 0 24 24;" xml:space="preserve">
<style type="text/css">
	.st0{fill:#FFFFFF;}
	.st1{fill:#CCE7FF;}
	.st2{fill:none;stroke:#1078FF;stroke-linecap:round;stroke-linejoin:round;stroke-miterlimit:10;}
	.st3{fill:none;stroke:#1078FF;stroke-linejoin:round;stroke-miterlimit:10;}
	.st4{fill:none;stroke:#1078FF;stroke-linecap:round;stroke-miterlimit:10;}
	.st5{fill:none;}
</style>
<g id="Duotone">
	<polygon class="st0" points="3.5,7.5 0.5,9 11.5,14 23.5,9 20.8,7.6 17.3,6.4 13.8,4.6 10.3,4.6 7,6.2 	"/>
	<polygon class="st0" points="11.5,14 0.5,9 0.5,17 11.5,22 	"/>
	<polygon class="st0" points="15,9.5 12,11 9,9.5 12,8 	"/>
	<polygon class="st0" points="15,4 12,5.5 9,4 12,2.5 	"/>
	<polygon class="st0" points="22,7 19,8.5 16,7 19,5.5 	"/>
	<polygon class="st0" points="8.5,7 5.5,8.5 2.5,7 5.5,5.5 	"/>
	<polygon class="st1" points="23.5,9 11.5,14 11.5,22 23.5,17 	"/>
	<polygon class="st1" points="12,8 15,9.5 12,11 	"/>
	<polygon class="st1" points="12,2.5 15,4 12,5.5 	"/>
	<polygon class="st1" points="19,5.5 22,7 19,8.5 	"/>
	<polygon class="st1" points="5.5,5.5 8.5,7 5.5,8.5 	"/>
	<polygon class="st1" points="5.7,11.4 11.5,14 23.5,9 20.8,7.6 19,8.5 16,7 	"/>
	<g>
		<line class="st2" x1="3.5" y1="7.5" x2="0.5" y2="9"/>
		<line class="st2" x1="10.3" y1="4.6" x2="7" y2="6.3"/>
		<line class="st2" x1="17.3" y1="6.4" x2="13.8" y2="4.6"/>
		<line class="st2" x1="23.5" y1="9" x2="20.8" y2="7.6"/>
		<polygon class="st2" points="23.5,9 11.5,14 11.5,22 23.5,17 		"/>
		<polygon class="st2" points="11.5,14 0.5,9 0.5,17 11.5,22 		"/>
		<polygon class="st2" points="15,9.5 12,11 9,9.5 12,8 		"/>
		<polygon class="st2" points="15,4 12,5.5 9,4 12,2.5 		"/>
		<polygon class="st2" points="22,7 19,8.5 16,7 19,5.5 		"/>
		<polygon class="st2" points="8.5,7 5.5,8.5 2.5,7 5.5,5.5 		"/>
	</g>
</g>
<g id="Frames-24px">
	<rect class="st5" width="24" height="24"/>
</g>
</svg>
