<?xml version="1.0" encoding="utf-8"?>
<!-- Generator: Adobe Illustrator 21.0.2, SVG Export Plug-In . SVG Version: 6.00 Build 0)  -->
<svg version="1.1" xmlns="http://www.w3.org/2000/svg" xmlns:xlink="http://www.w3.org/1999/xlink" x="0px" y="0px"
	 viewBox="0 0 24 24" style="enable-background:new 0 0 24 24;" xml:space="preserve">
<style type="text/css">
	.st0{fill:#FFFFFF;}
	.st1{fill:#CCE7FF;}
	.st2{fill:none;stroke:#1078FF;stroke-linecap:round;stroke-linejoin:round;stroke-miterlimit:10;}
	.st3{fill:#1078FF;}
	.st4{fill:none;}
</style>
<g id="Duotone">
	<rect x="0.5" y="9.5" class="st0" width="16" height="11"/>
	<rect x="14.5" y="1.5" class="st0" width="8" height="9"/>
	<polygon class="st1" points="16.5,9.5 0.5,17.5 16.5,17.5 	"/>
	<rect x="14.5" y="8.5" class="st1" width="8" height="2"/>
	<polyline class="st2" points="12.5,2.5 7.5,2.5 7.5,7 	"/>
	<polyline class="st2" points="9.5,5 7.5,7 5.5,5 	"/>
	<line class="st2" x1="8.5" y1="20.5" x2="8.5" y2="23.5"/>
	<line class="st2" x1="5.5" y1="23.5" x2="11.5" y2="23.5"/>
	<polyline class="st2" points="16.5,12.5 16.5,20.5 0.5,20.5 0.5,9.5 12.5,9.5 	"/>
	<line class="st2" x1="0.5" y1="17.5" x2="16.5" y2="17.5"/>
	<line class="st2" x1="16.5" y1="5.5" x2="20.5" y2="5.5"/>
	<line class="st2" x1="16.5" y1="3.5" x2="20.5" y2="3.5"/>
	<line class="st2" x1="16.5" y1="7.5" x2="18.5" y2="7.5"/>
	<rect x="14.5" y="1.5" class="st2" width="8" height="9"/>
</g>
<g id="Frames-24px">
	<rect class="st4" width="24" height="24"/>
</g>
</svg>
