<svg xmlns="http://www.w3.org/2000/svg" width="24" height="24" viewBox="0 0 24 24">
  <title>business-work-station-2</title>
  <g id="Duotone">
    <polygon points="22.5 3.5 0.5 3.5 0.5 20.5 17.5 20.5 17.5 23.5 21.5 23.5 21.5 20.5 22.5 20.5 22.5 3.5" fill="#fff"/>
    <path d="M10.5,10.591V14.5h-2V11.773l-2,1.182V14.5h-2v-.364L.5,16.5h22V3.5Zm4,3.909h-2v-2h2Z" fill="#cce7ff"/>
    <g>
      <line x1="3.5" y1="14.5" x2="15.5" y2="14.5" fill="none" stroke="#1078ff" stroke-linecap="round" stroke-linejoin="round"/>
      <polyline points="15.5 20.5 0.5 20.5 0.5 3.5 22.5 3.5 22.5 10.5" fill="none" stroke="#1078ff" stroke-linecap="round" stroke-linejoin="round"/>
      <line x1="0.5" y1="16.5" x2="15.5" y2="16.5" fill="none" stroke="#1078ff" stroke-linecap="round" stroke-linejoin="round"/>
      <line x1="11.5" y1="20.5" x2="11.5" y2="23.5" fill="none" stroke="#1078ff" stroke-linejoin="round"/>
      <line x1="6.5" y1="23.5" x2="15.5" y2="23.5" fill="none" stroke="#1078ff" stroke-linecap="round" stroke-linejoin="round"/>
      <line x1="12.5" y1="18.5" x2="10.5" y2="18.5" fill="none" stroke="#1078ff" stroke-linecap="round" stroke-linejoin="round"/>
      <rect x="17.5" y="18.5" width="4" height="5" fill="none" stroke="#1078ff" stroke-linecap="round" stroke-linejoin="round"/>
      <polyline points="18 16.5 19 15.5 17.75 14.25 19 13" fill="none" stroke="#1078ff" stroke-linecap="round" stroke-linejoin="round"/>
      <polyline points="20.5 16.5 21.5 15.5 20.25 14.25 21.5 13" fill="none" stroke="#1078ff" stroke-linecap="round" stroke-linejoin="round"/>
      <polyline points="21.5 19.5 23.5 19.5 23.5 21 21.5 22.429" fill="none" stroke="#1078ff" stroke-linecap="round" stroke-linejoin="round"/>
      <rect x="4.5" y="10.5" width="2" height="4" fill="none" stroke="#1078ff" stroke-linecap="round" stroke-linejoin="round"/>
      <rect x="12.5" y="12.5" width="2" height="2" fill="none" stroke="#1078ff" stroke-linecap="round" stroke-linejoin="round"/>
      <rect x="8.5" y="7.5" width="2" height="7" fill="none" stroke="#1078ff" stroke-linecap="round" stroke-linejoin="round"/>
    </g>
  </g>
  <g id="Frames-24px">
    <rect width="24" height="24" fill="none"/>
  </g>
</svg>
