<svg xmlns="http://www.w3.org/2000/svg" width="24" height="24" viewBox="0 0 24 24">
  <title>fire</title>
  <g id="Duotone">
    <polygon points="3.5 19.525 3.5 12.525 6.5 10.025 6.5 3.525 8.5 9.525 8.5 13.5 11.5 9.025 11.5 0.525 19.5 10.025 19.5 19.525 11.644 23.5 3.5 19.525" fill="#fff"/>
    <polygon points="11.5 5 11.5 9.025 8.5 13.5 8.5 14 6.5 8 6.5 10.025 3.5 12.525 3.5 19.525 11.362 23.362 8 20 7.5 16 10.5 18 13.5 12.5 15 19.5 11.543 23.451 11.644 23.5 19.5 19.525 19.5 14.5 11.5 5" fill="#cce7ff"/>
    <g>
      <polygon points="11.5 23.5 15 19.5 13.5 12.5 10.5 18 7.5 16 8 20 11.5 23.5" fill="none" stroke="#1078ff" stroke-linecap="round" stroke-linejoin="round"/>
      <line x1="11.5" y1="23.5" x2="11.5" y2="20.5" fill="none" stroke="#1078ff" stroke-linecap="round" stroke-linejoin="round"/>
      <polygon points="3.5 19.525 3.5 12.525 6.5 10.025 6.5 3.525 8.5 9.525 8.5 13.5 11.5 9.025 11.5 0.525 19.5 10.025 19.5 19.525 11.644 23.5 3.5 19.525" fill="none" stroke="#1078ff" stroke-linecap="round" stroke-linejoin="round"/>
    </g>
  </g>
  <g id="Frames-24px">
    <rect width="24" height="24" fill="none"/>
  </g>
</svg>
