<?xml version="1.0" encoding="utf-8"?>
<!-- Generator: Adobe Illustrator 21.0.2, SVG Export Plug-In . SVG Version: 6.00 Build 0)  -->
<svg version="1.1" xmlns="http://www.w3.org/2000/svg" xmlns:xlink="http://www.w3.org/1999/xlink" x="0px" y="0px"
	 viewBox="0 0 24 24" style="enable-background:new 0 0 24 24;" xml:space="preserve">
<style type="text/css">
	.st0{fill:#FFFFFF;}
	.st1{fill:#CCE7FF;}
	.st2{fill:none;stroke:#1078FF;stroke-linecap:round;stroke-linejoin:round;stroke-miterlimit:10;}
	.st3{fill:#1078FF;}
	.st4{fill:none;}
</style>
<g id="Duotone">
	<polygon class="st0" points="17.6,3.4 11.5,1 5.4,3.4 3,9.5 5.4,15.6 11.5,18 17.6,15.6 20,9.5 	"/>
	
		<rect x="10.4" y="20.4" transform="matrix(0.7071 -0.7071 0.7071 0.7071 -11.8345 14.4289)" class="st1" width="2.1" height="2.1"/>
	<g>
		<polygon class="st1" points="11.5,18 17.6,15.6 20,9.5 17.6,3.4 11.5,1 		"/>
	</g>
	<line class="st2" x1="11.5" y1="18" x2="11.5" y2="20"/>
	<line class="st2" x1="0.5" y1="21.5" x2="10" y2="21.5"/>
	<line class="st2" x1="13" y1="21.5" x2="22.5" y2="21.5"/>
	<line class="st2" x1="7.5" y1="16.5" x2="7.5" y2="2.5"/>
	<line class="st2" x1="15.5" y1="16.5" x2="15.5" y2="2.5"/>
	<line class="st2" x1="18.5" y1="5.5" x2="4.5" y2="5.5"/>
	<line class="st2" x1="18.5" y1="13.5" x2="4.5" y2="13.5"/>
	<line class="st2" x1="20" y1="9.5" x2="3" y2="9.5"/>
	<line class="st2" x1="11.5" y1="18" x2="11.5" y2="1"/>
	<polygon class="st2" points="17.6,3.4 11.5,1 5.4,3.4 3,9.5 5.4,15.6 11.5,18 17.6,15.6 20,9.5 	"/>
	
		<rect x="10.4" y="20.4" transform="matrix(0.7071 -0.7071 0.7071 0.7071 -11.8345 14.4289)" class="st2" width="2.1" height="2.1"/>
</g>
<g id="Frames-24px">
	<rect class="st4" width="24" height="24"/>
</g>
</svg>
